<svg xmlns="http://www.w3.org/2000/svg" data-name="Layer 2" viewBox="0 0 1170.75 252.03"><g data-name="Layer 1"><g aria-label="Danantara" style="font-weight:700;font-size:152.003px;font-family:&quot;Neue Haas Grotesk Display Pro&quot;;-inkscape-font-specification:&quot;Neue Haas Grotesk Display Pro Bold&quot;;fill:#000;stroke-width:51.3012;stop-color:#000"><path d="M288.008 86.034h15.809q13.072 0 19.912-7.904 6.84-8.056 6.84-23.105 0-15.048-6.992-23.712-6.992-8.816-19.456-8.816h-16.113Zm-26.904 22.648V0h46.36q22.65 0 36.481 15.049 13.833 15.048 13.833 39.976 0 29.337-18.849 43.777-13.224 9.88-33.136 9.88zM388.938 110.659q-12.008 0-19.304-6.233t-7.296-17.48q0-11.856 7.904-17.176 7.904-5.472 21.888-7.296 11.4-1.368 15.505-3.04 4.256-1.825 4.256-5.625 0-8.36-10.64-8.36-11.4 0-12.617 10.032h-22.8q.456-11.552 9.424-19.152 9.12-7.6 25.84-7.6t25.233 6.384q9.88 7.144 9.88 22.192v39.217q0 9.272 2.736 11.096v1.064h-24.016q-1.52-2.128-2.584-8.664h-.304q-7.448 10.64-23.105 10.64m7.904-15.809q6.993 0 11.249-3.8 4.408-3.952 4.408-10.184v-9.272q-3.648 1.824-12.768 4.104-7.449 1.672-10.489 3.952t-3.04 6.536q0 8.664 10.64 8.664M448.22 108.682V30.857h23.864v10.64h.456q8.968-12.92 24.017-12.92 12.616 0 19.76 8.208 7.296 8.056 7.296 21.28v50.617h-24.776v-45.6q0-6.385-3.192-10.033-3.04-3.8-8.969-3.8-6.08 0-9.88 4.56t-3.8 11.857v43.016zM557.814 110.659q-12.009 0-19.305-6.233t-7.296-17.48q0-11.856 7.904-17.176 7.904-5.472 21.889-7.296 11.4-1.368 15.504-3.04 4.256-1.825 4.256-5.625 0-8.36-10.64-8.36-11.4 0-12.616 10.032h-22.8q.455-11.552 9.423-19.152 9.12-7.6 25.84-7.6 16.721 0 25.233 6.384 9.88 7.144 9.88 22.192v39.217q0 9.272 2.737 11.096v1.064h-24.017q-1.52-2.128-2.584-8.664h-.304q-7.448 10.64-23.104 10.64m7.904-15.809q6.992 0 11.248-3.8 4.408-3.952 4.408-10.184v-9.272q-3.648 1.824-12.768 4.104-7.448 1.672-10.488 3.952t-3.04 6.536q0 8.664 10.64 8.664M617.095 108.682V30.857h23.864v10.64h.456q8.969-12.92 24.017-12.92 12.616 0 19.76 8.208 7.296 8.056 7.296 21.28v50.617h-24.776v-45.6q0-6.385-3.192-10.033-3.04-3.8-8.968-3.8-6.08 0-9.88 4.56t-3.8 11.857v43.016zM733.073 109.594q-11.856 0-18.392-4.712-6.384-4.864-6.384-16.72v-41.8H697.96V30.856h10.337V6.232h24.168v24.625h14.136V46.36h-14.136v36.481q0 4.256 2.128 5.928 2.28 1.672 6.536 1.672h3.192q1.976-.152 2.28-.152v18.088q-4.256 1.216-13.528 1.216M780.042 110.659q-12.008 0-19.304-6.233t-7.296-17.48q0-11.856 7.904-17.176 7.904-5.472 21.888-7.296 11.4-1.368 15.504-3.04 4.257-1.825 4.257-5.625 0-8.36-10.64-8.36-11.4 0-12.617 10.032h-22.8q.456-11.552 9.424-19.152 9.12-7.6 25.84-7.6t25.233 6.384q9.88 7.144 9.88 22.192v39.217q0 9.272 2.736 11.096v1.064h-24.016q-1.52-2.128-2.584-8.664h-.304q-7.449 10.64-23.105 10.64m7.904-15.809q6.992 0 11.248-3.8 4.409-3.952 4.409-10.184v-9.272q-3.649 1.824-12.769 4.104-7.448 1.672-10.488 3.952t-3.04 6.536q0 8.664 10.64 8.664M839.323 108.682V30.857h23.713v12.16h.456q7.904-13.376 21.28-13.376 3.496 0 4.864.608v21.28h-.608q-11.552-1.672-18.24 4.104-6.688 5.625-6.688 18.089v34.96zM918.213 110.659q-12.008 0-19.304-6.233-7.297-6.232-7.297-17.48 0-11.856 7.905-17.176 7.904-5.472 21.888-7.296 11.4-1.368 15.504-3.04 4.256-1.825 4.256-5.625 0-8.36-10.64-8.36-11.4 0-12.616 10.032h-22.8q.455-11.552 9.424-19.152 9.12-7.6 25.84-7.6t25.233 6.384q9.88 7.144 9.88 22.192v39.217q0 9.272 2.736 11.096v1.064h-24.017q-1.52-2.128-2.584-8.664h-.304q-7.448 10.64-23.104 10.64m7.904-15.809q6.992 0 11.248-3.8 4.408-3.952 4.408-10.184v-9.272q-3.648 1.824-12.768 4.104-7.448 1.672-10.488 3.952t-3.04 6.536q0 8.664 10.64 8.664" style="fill:#000" transform="matrix(.99132 0 0 1.0247 -2.607 0)"/></g><g style="font-weight:700;font-size:152.899px;font-family:&quot;Neue Haas Grotesk Display Pro&quot;;-inkscape-font-specification:&quot;Neue Haas Grotesk Display Pro Bold&quot;;fill:#000;stroke-width:51.6033;stop-color:#000"><path d="M262.797 241.923V132.6h27.063v109.323zM303.315 241.923V163.64h24.005v10.703h.46q9.02-12.997 24.157-12.997 12.69 0 19.877 8.257 7.34 8.104 7.34 21.406v50.915H354.23v-45.87q0-6.421-3.211-10.09-3.058-3.823-9.021-3.823-6.116 0-9.939 4.587-3.822 4.587-3.822 11.926v43.27zM421.2 244.37q-15.29 0-24.77-11.162-9.479-11.162-9.479-30.427 0-18.348 9.48-29.815 9.632-11.62 24.77-11.62 14.066 0 21.864 11.161h.459V132.6h24.922v109.323h-23.852v-10.55h-.306q-7.645 12.997-23.088 12.997m6.422-19.724q7.645 0 12.08-5.964 4.433-6.115 4.433-15.901 0-10.244-4.128-16.36-4.128-6.27-12.08-6.27-7.338 0-11.62 6.117-4.128 6.116-4.128 16.207 0 10.244 4.129 16.207t11.314 5.964M506.365 220.211q4.281 6.422 12.232 6.422t12.232-6.422q4.434-6.421 4.434-17.277t-4.434-17.278q-4.281-6.574-12.232-6.574t-12.232 6.421-4.281 17.43q0 10.857 4.281 17.278m42.506 12.385q-11.468 11.774-30.121 11.774-18.654 0-30.274-11.774t-11.62-29.662 11.62-29.663 30.274-11.773 30.12 11.773q11.621 11.774 11.621 29.663t-11.62 29.662M568.9 241.923V163.64h24.006v10.703h.459q9.02-12.997 24.158-12.997 12.69 0 19.877 8.257 7.339 8.104 7.339 21.406v50.915h-24.923v-45.87q0-6.421-3.21-10.09-3.059-3.823-9.022-3.823-6.116 0-9.938 4.587t-3.823 11.926v43.27zM694.278 244.217q-18.96 0-30.427-11.62-11.315-11.774-11.315-29.969 0-17.736 11.162-29.51 11.315-11.773 29.05-11.773 16.055 0 26.758 9.786 14.067 12.843 13.761 38.072H677q1.224 8.103 5.658 12.69 4.434 4.434 11.926 4.434 9.632 0 12.996-7.797h24.311q-2.752 11.314-13.15 18.5-10.243 7.187-24.463 7.187m-17.125-49.845h30.886q-.612-7.034-4.74-11.162-3.975-4.128-10.091-4.128-13.303 0-16.055 15.29M775.009 244.37q-17.125 0-27.37-7.34-10.09-7.492-10.702-20.488h23.546q1.376 11.62 14.373 11.62 5.657 0 8.868-1.987 3.364-2.141 3.364-5.81 0-1.224-.306-2.141-.306-.918-1.07-1.682-.765-.765-1.53-1.376-.611-.612-1.987-1.07-1.376-.612-2.447-.918-.917-.306-2.905-.611-1.834-.46-2.905-.612-1.07-.306-3.364-.612-2.293-.458-3.363-.611-4.893-.765-8.257-1.53-3.364-.917-7.492-2.751-3.975-1.835-6.575-4.129-2.446-2.446-4.128-6.421-1.682-4.129-1.682-9.48 0-11.926 9.633-18.501t24.158-6.575q16.36 0 25.381 6.728 9.021 6.575 9.939 18.348h-22.935q-1.223-9.174-12.538-9.174-4.893 0-7.95 1.835-2.906 1.834-2.906 5.351 0 .918.306 1.682t.917 1.376q.765.612 1.376 1.07.765.46 1.988.918t2.14.764q1.071.306 2.753.612 1.835.306 2.905.611 1.223.153 3.21.612 1.989.306 3.212.459 5.198.917 8.562 1.682t7.798 2.752q4.587 1.835 7.186 4.434 2.6 2.446 4.434 6.88 1.988 4.282 1.988 10.092 0 12.537-9.938 19.265-9.786 6.728-25.687 6.728M818.738 241.923V163.64h24.922v78.284zm0-89.14V132.6h24.922v20.183zM878.674 243.91q-12.08 0-19.418-6.268-7.34-6.269-7.34-17.583 0-11.927 7.951-17.278 7.951-5.504 22.018-7.34 11.467-1.375 15.595-3.057 4.282-1.835 4.282-5.657 0-8.41-10.703-8.41-11.468 0-12.69 10.091h-22.936q.459-11.62 9.48-19.265 9.174-7.645 25.993-7.645t25.381 6.422q9.938 7.186 9.938 22.323v39.448q0 9.327 2.753 11.162v1.07H904.82q-1.53-2.14-2.6-8.715h-.305q-7.493 10.703-23.241 10.703m7.95-15.9q7.034 0 11.315-3.823 4.434-3.976 4.434-10.244v-9.327q-3.67 1.835-12.843 4.128-7.492 1.682-10.55 3.975t-3.058 6.575q0 8.715 10.703 8.715" style="fill:#000" transform="matrix(.98792 0 0 1.02654 -3.394 1.174)"/></g><g aria-label="Sovereign Fund" style="font-weight:700;font-size:53.3333px;font-family:&quot;Neue Haas Grotesk Display Pro&quot;;-inkscape-font-specification:&quot;Neue Haas Grotesk Display Pro Bold&quot;;fill:#000;stroke-width:18;stop-color:#000"><path d="M954.11 197.716q-7.733 0-12-3.254-4.267-3.306-4.48-9.386h7.573q.374 3.413 2.4 4.906 2.08 1.494 6.187 1.494 3.253 0 5.333-1.174 2.08-1.226 2.08-3.733 0-.907-.266-1.6-.214-.747-.96-1.28-.747-.587-1.28-.907-.534-.373-1.974-.746-1.44-.427-2.186-.587-.747-.213-2.774-.693-2.453-.587-4.053-1.014-1.547-.426-3.467-1.333-1.866-.907-2.986-1.973-1.067-1.12-1.814-2.88-.746-1.814-.746-4.107 0-5.493 4-8.427 4.053-2.986 10.613-2.986 6.507 0 10.4 3.093t4.32 8.8h-7.413q-.32-2.773-2.347-4.267-1.973-1.493-5.013-1.493-3.147 0-5.014 1.227-1.866 1.226-1.866 3.253 0 2.187 1.813 3.2 1.867 1.013 6.507 2.027 2.773.586 4.533 1.12 1.76.48 3.787 1.44 2.08.906 3.2 2.026 1.173 1.12 1.92 2.987.8 1.813.8 4.213 0 5.654-4.107 8.854t-10.72 3.2M996.243 193.556q-4 4.106-10.293 4.106t-10.293-4.106q-4-4.16-4-10.347t4-10.293q4-4.16 10.293-4.16t10.293 4.16q4 4.106 4 10.293t-4 10.347m-10.293-1.44q3.253 0 5.067-2.4 1.866-2.454 1.866-6.507t-1.866-6.507q-1.814-2.453-5.067-2.453-3.307 0-5.12 2.453-1.813 2.4-1.813 6.507 0 4.053 1.813 6.507 1.813 2.4 5.12 2.4M1010.057 196.862l-9.494-27.36h7.36l4.374 14.187 1.226 4.373h.107q.373-1.76 1.173-4.373l4.48-14.187h7.254l-9.547 27.36zM1041.043 197.662q-6.613 0-10.4-4.053-3.786-4.107-3.786-10.453 0-6.134 3.786-10.24 3.787-4.16 9.707-4.16 6.453 0 9.973 4.48t3.52 12h-19.84q.427 3.253 2.187 5.066 1.76 1.76 4.8 1.76 4 0 5.28-3.36h7.147q-.8 3.84-4.054 6.4-3.253 2.56-8.32 2.56m-.586-23.306q-5.28 0-6.347 5.866h12.16q-.16-2.613-1.76-4.213-1.6-1.653-4.053-1.653M1064.19 169.502v4.374h.16q1.28-2.4 2.827-3.52 1.546-1.174 3.893-1.174 1.12 0 1.707.214v6.346h-.16q-3.68-.373-5.92 1.6t-2.24 6.187v13.333h-7.254v-27.36zM1087.977 197.662q-6.614 0-10.4-4.053-3.787-4.107-3.787-10.453 0-6.134 3.787-10.24 3.786-4.16 9.706-4.16 6.454 0 9.974 4.48t3.52 12h-19.84q.426 3.253 2.186 5.066 1.76 1.76 4.8 1.76 4 0 5.28-3.36h7.147q-.8 3.84-4.053 6.4t-8.32 2.56m-.587-23.306q-5.28 0-6.347 5.866h12.16q-.16-2.613-1.76-4.213-1.6-1.653-4.053-1.653M1104.137 196.862v-27.36h7.253v27.36zm0-31.626v-6.507h7.253v6.507zM1128.137 206.196q-5.547 0-8.907-2.24-3.307-2.24-3.893-6.294h7.2q1.066 3.04 5.493 3.04 6.08 0 6.08-5.706v-2.987h-.16q-2.827 3.2-7.147 3.2-4.853 0-8.48-3.573-3.573-3.574-3.573-9.494 0-6.08 3.307-9.706 3.306-3.68 8.533-3.68 4.96 0 7.573 3.626h.107v-2.88h6.987v25.28q0 5.334-3.254 8.32-3.306 3.094-9.866 3.094m-.107-16.8q3.253 0 4.853-2.08t1.6-5.334q0-3.2-1.706-5.28-1.654-2.133-4.8-2.133-2.774 0-4.48 2.027-1.654 2.026-1.654 5.44 0 3.466 1.654 5.44 1.706 1.92 4.533 1.92M1153.043 169.502v3.734h.16q2.827-4.48 8.107-4.48 4.213 0 6.827 2.88 2.613 2.826 2.613 7.36v17.866h-7.253v-16.8q0-2.24-1.28-3.626-1.227-1.387-3.467-1.387-2.4 0-4 1.76-1.547 1.76-1.547 4.533v15.52h-7.253v-27.36z" style="font-weight:600;-inkscape-font-specification:&quot;Neue Haas Grotesk Display Pro Semi-Bold&quot;;fill:#000" transform="matrix(1.00223 0 0 1.01355 -2.607 0)"/><g style="fill:#000"><path d="M939.337 263.529v-38.133h27.306v6.56H947.07v9.173h16.587v6.613H947.07v15.787zM993.097 263.529h-6.987v-3.2h-.16q-1.493 2.027-3.307 2.987-1.76.96-4.533.96-4.48 0-6.987-2.667t-2.506-7.2v-18.24h7.2v17.013q0 4.96 4.533 4.96 2.507 0 4-1.706 1.493-1.707 1.493-4.48v-15.787h7.254zM1004.883 236.169v3.733h.16q2.827-4.48 8.107-4.48 4.213 0 6.827 2.88 2.613 2.827 2.613 7.36v17.867h-7.253v-16.8q0-2.24-1.28-3.627-1.227-1.386-3.467-1.386-2.4 0-4 1.76-1.547 1.76-1.547 4.533v15.52h-7.253v-27.36zM1037.31 264.329q-5.173 0-8.373-3.893-3.2-3.947-3.2-10.56 0-6.4 3.253-10.4 3.307-4.054 8.427-4.054t7.733 4.054h.16v-14.08h7.253v38.133h-6.986v-3.573h-.107q-2.667 4.373-8.16 4.373m1.6-6.08q3.2 0 4.853-2.187 1.707-2.186 1.707-6.026 0-8.747-6.347-8.747-2.933 0-4.48 2.347-1.546 2.346-1.546 6.24 0 4 1.493 6.186 1.547 2.187 4.32 2.187" style="font-weight:600;-inkscape-font-specification:&quot;Neue Haas Grotesk Display Pro Semi-Bold&quot;;fill:#000" transform="matrix(1.00223 0 0 1.01355 -1.324 -17.718)"/></g></g><path d="M211.49 119.02v18.66c0 60.81-49.29 110.1-110.1 110.1H0V8.92h101.39c60.81 0 110.1 49.29 110.1 110.1"/><path d="M185.84 144.62c-6.06-8.42-18.18-7.41-18.18-7.41-48.17 0-65.35 50.19-65.35 50.19l-41.59-36.75.23-.34c.24-.35 24.54-35.36 95.25-35.36 7.03 0 13.89.72 20.56 2.02 3.05.6 5.98 1.8 8.41 3.74 11.63 9.26.67 23.91.67 23.91" style="fill:#fff"/><path d="M173.26 110.28c-5.55-.86-11.25-1.33-17.06-1.33-71.28 0-97.19 33.69-100.01 37.7l-43.47-38.41s42.44-24.92 106.1-24.92c37.2 0 50.13 14.72 54.44 26.96" style="fill:red"/></g></svg>